<?xml version="1.0" encoding="UTF-8" standalone="no"?>
<!-- Created with Inkscape (http://www.inkscape.org/) -->

<svg
   xmlns:dc="http://purl.org/dc/elements/1.1/"
   xmlns:cc="http://creativecommons.org/ns#"
   xmlns:rdf="http://www.w3.org/1999/02/22-rdf-syntax-ns#"
   xmlns:svg="http://www.w3.org/2000/svg"
   xmlns="http://www.w3.org/2000/svg"
   xmlns:sodipodi="http://sodipodi.sourceforge.net/DTD/sodipodi-0.dtd"
   xmlns:inkscape="http://www.inkscape.org/namespaces/inkscape"
   width="16px"
   height="16px"
   viewBox="0 0 16 16"
   version="1.1"
   id="SVGRoot"
   inkscape:version="0.92.5 (2060ec1f9f, 2020-04-08)"
   sodipodi:docname="moon-hover.svg">
  <defs
     id="defs3740" />
  <sodipodi:namedview
     id="base"
     pagecolor="#ffffff"
     bordercolor="#666666"
     borderopacity="1.0"
     inkscape:pageopacity="0.0"
     inkscape:pageshadow="2"
     inkscape:zoom="22.627417"
     inkscape:cx="7.6157896"
     inkscape:cy="7.9648359"
     inkscape:document-units="px"
     inkscape:current-layer="layer1"
     showgrid="false"
     inkscape:window-width="1366"
     inkscape:window-height="704"
     inkscape:window-x="0"
     inkscape:window-y="27"
     inkscape:window-maximized="1"
     inkscape:grid-bbox="true" />
  <metadata
     id="metadata3743">
    <rdf:RDF>
      <cc:Work
         rdf:about="">
        <dc:format>image/svg+xml</dc:format>
        <dc:type
           rdf:resource="http://purl.org/dc/dcmitype/StillImage" />
        <dc:title></dc:title>
      </cc:Work>
    </rdf:RDF>
  </metadata>
  <g
     inkscape:label="Layer 1"
     inkscape:groupmode="layer"
     id="layer1">
    <g
       style="fill:currentColor"
       id="g3764"
       transform="matrix(1.066685,0,0,1.0000417,-0.00247281,0.00657014)">
      <path
         id="path3753"
         d="m 6,0.278 a 0.768,0.768 0 0 1 0.08,0.858 7.208,7.208 0 0 0 -0.878,3.46 c 0,4.021 3.278,7.277 7.318,7.277 0.527,0 1.04,-0.055 1.533,-0.16 a 0.787,0.787 0 0 1 0.81,0.316 0.733,0.733 0 0 1 -0.031,0.893 A 8.349,8.349 0 0 1 8.344,16 C 3.734,16 0,12.286 0,7.71 0,4.266 2.114,1.312 5.124,0.06 A 0.752,0.752 0 0 1 6,0.278 Z M 4.858,1.311 A 7.269,7.269 0 0 0 1.025,7.71 c 0,4.02 3.279,7.276 7.319,7.276 a 7.316,7.316 0 0 0 5.205,-2.162 c -0.337,0.042 -0.68,0.063 -1.029,0.063 -4.61,0 -8.343,-3.714 -8.343,-8.29 0,-1.167 0.242,-2.278 0.681,-3.286 z"
         inkscape:connector-curvature="0" />
    </g>
    <path
       style="fill:#808080;stroke-width:0.04419417"
       d="M 8.091684,14.933323 C 5.0216347,14.637209 2.3647388,12.597902 1.4545593,9.8389802 1.0467328,8.602783 1.0135028,7.1115991 1.3665343,5.8888851 1.8047702,4.3710684 2.7454142,3.0146655 4.0174208,2.0663231 4.4218928,1.7647696 5.0404601,1.388078 5.0747927,1.4224106 c 0.010581,0.010581 -0.039036,0.1693149 -0.110261,0.3527415 -0.316515,0.8151274 -0.4758197,1.590645 -0.5160794,2.512346 -0.15953,3.6522623 2.2959948,6.9914379 6.0084307,8.1706399 1.052912,0.334442 2.039885,0.47026 3.188845,0.438818 l 0.720079,-0.01971 -0.248271,0.215546 c -0.136549,0.118551 -0.455061,0.3535 -0.707804,0.522109 -1.540916,1.027973 -3.4422559,1.499341 -5.318048,1.318417 z"
       id="path3766"
       inkscape:connector-curvature="0" />
  </g>
</svg>
