<?xml version="1.0" encoding="UTF-8" standalone="no"?>
<!-- Created with Inkscape (http://www.inkscape.org/) -->

<svg
   xmlns:dc="http://purl.org/dc/elements/1.1/"
   xmlns:cc="http://creativecommons.org/ns#"
   xmlns:rdf="http://www.w3.org/1999/02/22-rdf-syntax-ns#"
   xmlns:svg="http://www.w3.org/2000/svg"
   xmlns="http://www.w3.org/2000/svg"
   xmlns:sodipodi="http://sodipodi.sourceforge.net/DTD/sodipodi-0.dtd"
   xmlns:inkscape="http://www.inkscape.org/namespaces/inkscape"
   width="16"
   height="16"
   viewBox="0 0 4.2333332 4.2333335"
   version="1.1"
   id="svg8"
   inkscape:version="0.92.5 (2060ec1f9f, 2020-04-08)"
   sodipodi:docname="sun.svg">
  <defs
     id="defs2" />
  <sodipodi:namedview
     id="base"
     pagecolor="#ffffff"
     bordercolor="#666666"
     borderopacity="1.0"
     inkscape:pageopacity="0.0"
     inkscape:pageshadow="2"
     inkscape:zoom="22.4"
     inkscape:cx="6.8047503"
     inkscape:cy="9.3497121"
     inkscape:document-units="mm"
     inkscape:current-layer="layer1"
     showgrid="false"
     units="px"
     inkscape:window-width="1366"
     inkscape:window-height="704"
     inkscape:window-x="0"
     inkscape:window-y="27"
     inkscape:window-maximized="1" />
  <metadata
     id="metadata5">
    <rdf:RDF>
      <cc:Work
         rdf:about="">
        <dc:format>image/svg+xml</dc:format>
        <dc:type
           rdf:resource="http://purl.org/dc/dcmitype/StillImage" />
        <dc:title></dc:title>
      </cc:Work>
    </rdf:RDF>
  </metadata>
  <g
     inkscape:label="Layer 1"
     inkscape:groupmode="layer"
     id="layer1"
     transform="translate(0,-292.76665)">
    <g
       style="fill:currentColor"
       id="g29"
       transform="matrix(0.26458333,0,0,0.26458333,-0.00236232,292.76901)">
      <path
         id="path18"
         d="m 8,11 a 3,3 0 1 1 0,-6 3,3 0 0 1 0,6 z m 0,1 A 4,4 0 1 0 8,4 4,4 0 0 0 8,12 Z M 8,0 a 0.5,0.5 0 0 1 0.5,0.5 v 2 a 0.5,0.5 0 0 1 -1,0 v -2 A 0.5,0.5 0 0 1 8,0 Z m 0,13 a 0.5,0.5 0 0 1 0.5,0.5 v 2 a 0.5,0.5 0 0 1 -1,0 v -2 A 0.5,0.5 0 0 1 8,13 Z m 8,-5 a 0.5,0.5 0 0 1 -0.5,0.5 h -2 a 0.5,0.5 0 0 1 0,-1 h 2 A 0.5,0.5 0 0 1 16,8 Z M 3,8 A 0.5,0.5 0 0 1 2.5,8.5 h -2 a 0.5,0.5 0 0 1 0,-1 h 2 A 0.5,0.5 0 0 1 3,8 Z M 13.657,2.343 a 0.5,0.5 0 0 1 0,0.707 L 12.243,4.465 A 0.50027817,0.50027817 0 1 1 11.536,3.757 L 12.95,2.343 a 0.5,0.5 0 0 1 0.707,0 z m -9.193,9.193 a 0.5,0.5 0 0 1 0,0.707 L 3.05,13.657 A 0.5,0.5 0 0 1 2.343,12.95 l 1.414,-1.414 a 0.5,0.5 0 0 1 0.707,0 z m 9.193,2.121 a 0.5,0.5 0 0 1 -0.707,0 l -1.414,-1.414 a 0.5,0.5 0 0 1 0.707,-0.707 l 1.414,1.414 a 0.5,0.5 0 0 1 0,0.707 z M 4.464,4.465 a 0.5,0.5 0 0 1 -0.707,0 L 2.343,3.05 A 0.5,0.5 0 1 1 3.05,2.343 l 1.414,1.414 a 0.5,0.5 0 0 1 0,0.708 z"
         inkscape:connector-curvature="0" />
    </g>
    <path
       style="fill:#ffffff;stroke-width:0.04464286"
       d="M 7.7562602,2.9114385 C 7.6780282,2.863737 7.5926487,2.7847757 7.5665281,2.7359688 7.5365834,2.6800167 7.519036,2.2329592 7.519036,1.5260059 c 0,-0.91274289 0.012537,-1.14546774 0.067426,-1.25161153 0.086004,-0.16631317 0.1928553,-0.22232074 0.4241443,-0.22232074 0.1448839,0 0.2132043,0.02826392 0.3154348,0.13049451 L 8.456536,0.31306264 V 1.4895991 c 0,1.2870382 -0.00337,1.3051691 -0.2683501,1.4421938 -0.1705629,0.088201 -0.2608698,0.083946 -0.4319257,-0.020354 z"
       id="path33"
       inkscape:connector-curvature="0"
       transform="matrix(0.26458333,0,0,0.26458333,0,292.76665)" />
    <path
       style="fill:#ffffff;stroke-width:0.04464286"
       d="M 3.925286,4.5623037 C 3.8761789,4.5415787 3.4693709,4.1548994 3.0212682,3.7030165 2.2999339,2.9755969 2.206536,2.8647565 2.206536,2.7361289 c 0,-0.3037674 0.1880692,-0.4940621 0.4897669,-0.4955626 l 0.1995884,-9.927e-4 0.8383581,0.8383581 c 0.8084754,0.8084755 0.8383581,0.8447204 0.8383581,1.0168524 0,0.3530914 -0.3387491,0.5977486 -0.6473215,0.4675196 z"
       id="path35"
       inkscape:connector-curvature="0"
       transform="matrix(0.26458333,0,0,0.26458333,0,292.76665)" />
    <path
       style="fill:#ffffff;stroke-width:0.04464286"
       d="M 0.30421983,8.4469114 C 0.1619932,8.3877998 0.01903602,8.1812702 0.01903602,8.0349076 c 0,-0.1629901 0.10786026,-0.3764555 0.22074147,-0.4368677 0.11575475,-0.06195 2.38919091,-0.06195 2.50494561,0 0.047239,0.025282 0.1162307,0.104641 0.1533152,0.1763545 0.1051275,0.2032943 0.08462,0.3820173 -0.062772,0.5470642 L 2.7050675,8.4672522 1.5517839,8.476674 C 0.91747794,8.481856 0.3560741,8.4684628 0.30421983,8.4469114 Z"
       id="path37"
       inkscape:connector-curvature="0"
       transform="matrix(0.26458333,0,0,0.26458333,0,292.76665)" />
    <path
       style="fill:#ffffff;stroke-width:0.04464286"
       d="M 2.5782721,13.769876 C 2.3176165,13.72217 2.1401169,13.343812 2.266063,13.104372 c 0.037086,-0.0705 0.4168393,-0.474731 0.8438964,-0.89828 0.7723698,-0.766026 0.7775124,-0.770085 0.9744685,-0.769097 0.3001877,0.0015 0.4881796,0.192488 0.4881796,0.495946 0,0.1296 -0.092317,0.237727 -0.8370536,0.980395 -0.8254718,0.823181 -0.9273927,0.898616 -1.1572818,0.85654 z"
       id="path39"
       inkscape:connector-curvature="0"
       transform="matrix(0.26458333,0,0,0.26458333,0,292.76665)" />
    <path
       style="fill:#ffffff;stroke-width:0.04464286"
       d="m 7.8042199,15.947899 c -0.051854,-0.02209 -0.1372338,-0.09478 -0.1897322,-0.161519 -0.09182,-0.11673 -0.095452,-0.164515 -0.095452,-1.255937 0,-1.232261 0.016696,-1.330266 0.2442883,-1.433964 0.2106824,-0.09599 0.4052387,-0.06658 0.5558491,0.08403 L 8.456536,13.31787 v 1.178898 1.178897 l -0.1227678,0.136183 c -0.1323686,0.146834 -0.364361,0.206437 -0.5295483,0.136051 z"
       id="path41"
       inkscape:connector-curvature="0"
       transform="matrix(0.26458333,0,0,0.26458333,0,292.76665)" />
    <path
       style="fill:#ffffff;stroke-width:0.04464286"
       d="m 13.121715,13.758321 c -0.04911,-0.02095 -0.450893,-0.401584 -0.892858,-0.84585 l -0.803571,-0.807757 v -0.204089 c 0,-0.174103 0.02142,-0.22323 0.145794,-0.334356 0.111701,-0.0998 0.189337,-0.130267 0.332006,-0.130267 0.181563,0 0.20601,0.01969 0.978946,0.788307 0.436002,0.433568 0.817076,0.847078 0.84683,0.91891 0.152243,0.367547 -0.244734,0.769724 -0.607147,0.615102 z"
       id="path43"
       inkscape:connector-curvature="0"
       transform="matrix(0.26458333,0,0,0.26458333,0,292.76665)" />
    <path
       style="fill:#ffffff;stroke-width:0.04464286"
       d="M 7.1842146,11.904526 C 6.3548144,11.718454 5.6187396,11.298221 5.0694013,10.697157 4.755489,10.353687 4.5948991,10.112218 4.3931685,9.680346 3.3435596,7.4333091 4.583109,4.8107084 7.0056432,4.1529518 7.5125277,4.0153246 8.4586758,4.014699 8.9699289,4.1516529 c 0.513858,0.1376518 1.1897221,0.4881548 1.5817011,0.8202703 1.002682,0.8495501 1.543743,2.2033893 1.389119,3.4758429 -0.113841,0.9368308 -0.479544,1.6800389 -1.162855,2.3632359 -0.584241,0.584143 -1.2257196,0.938686 -1.9734937,1.090743 -0.4181459,0.08503 -1.2472315,0.08645 -1.6201857,0.0028 z M 8.581186,10.965998 c 0.4691518,-0.09301 1.0770335,-0.39663 1.424855,-0.711675 C 10.612464,9.7050451 10.948213,8.9865018 10.989908,8.1487255 11.062186,6.696444 10.12898,5.4420261 8.703853,5.0758054 8.3604354,4.9875559 7.6182232,4.987055 7.271719,5.0748388 6.4431676,5.284745 5.647323,5.9232783 5.2970082,6.6592165 4.860855,7.5754836 4.865828,8.4710304 5.3120897,9.3751281 5.9044031,10.575118 7.2499571,11.229917 8.581186,10.965998 Z"
       id="path45"
       inkscape:connector-curvature="0"
       transform="matrix(0.26458333,0,0,0.26458333,0,292.76665)" />
    <path
       style="fill:#ffffff;stroke-width:0.04464286"
       d="M 13.267365,8.4208392 C 13.03261,8.2912553 12.945079,7.9787901 13.086184,7.7740605 c 0.15162,-0.2199868 0.145728,-0.2190662 1.411733,-0.220567 l 1.19763,-0.00142 0.130495,0.1304945 c 0.182016,0.1820161 0.182133,0.4352726 2.94e-4,0.6388904 L 15.696139,8.467252 14.542855,8.477774 c -0.959411,0.00875 -1.173827,-8.177e-4 -1.27549,-0.056935 z"
       id="path53"
       inkscape:connector-curvature="0"
       transform="matrix(0.26458333,0,0,0.26458333,0,292.76665)" />
    <path
       style="fill:#ffffff;stroke-width:0.04464286"
       d="M 11.660222,4.537968 C 11.525731,4.462566 11.402965,4.2605171 11.402965,4.1145736 c 0,-0.1797233 0.131241,-0.3398969 0.905328,-1.1049107 0.761951,-0.7530193 0.783412,-0.7700893 0.968198,-0.7700893 0.260742,0 0.492545,0.2226459 0.492545,0.4730879 0,0.1603554 -0.04524,0.2149342 -0.83716,1.0099413 -0.905735,0.9092683 -0.998301,0.96862 -1.271654,0.8153652 z"
       id="path55"
       inkscape:connector-curvature="0"
       transform="matrix(0.26458333,0,0,0.26458333,0,292.76665)" />
  </g>
</svg>
